<svg width="60" height="60" viewBox="0 0 60 60" fill="none" xmlns="http://www.w3.org/2000/svg">
<rect x="1.5" y="1.5" width="57" height="57" rx="8.5" stroke="#3990FC" stroke-width="3"/>
<g filter="url(#filter0_d_15_2)">
<path d="M38.2251 24.2393C38.1058 23.0362 37.5938 22.1016 36.6889 21.4354C35.7841 20.7692 34.5561 20.4361 33.005 20.4361C31.951 20.4361 31.0611 20.5852 30.3352 20.8835C29.6094 21.1719 29.0526 21.5746 28.6648 22.0916C28.2869 22.6087 28.098 23.1953 28.098 23.8516C28.0781 24.3984 28.1925 24.8757 28.4411 25.2834C28.6996 25.6911 29.0526 26.044 29.5 26.3423C29.9474 26.6307 30.4645 26.8842 31.0511 27.103C31.6378 27.3118 32.2642 27.4908 32.9304 27.6399L35.6747 28.2962C37.0071 28.5945 38.2301 28.9922 39.3438 29.4893C40.4574 29.9865 41.4219 30.598 42.2372 31.3239C43.0526 32.0497 43.6839 32.9048 44.1314 33.8892C44.5888 34.8736 44.8224 36.0021 44.8324 37.2749C44.8224 39.1442 44.3452 40.7649 43.4006 42.1371C42.4659 43.4993 41.1136 44.5582 39.3438 45.3139C37.5838 46.0597 35.4609 46.4325 32.9751 46.4325C30.5092 46.4325 28.3615 46.0547 26.532 45.299C24.7124 44.5433 23.2905 43.4247 22.2663 41.9432C21.2521 40.4517 20.7202 38.6072 20.6705 36.4098H26.9197C26.9893 37.4339 27.2827 38.2891 27.7997 38.9751C28.3267 39.6513 29.0277 40.1634 29.9027 40.5114C30.7876 40.8494 31.7869 41.0185 32.9006 41.0185C33.9943 41.0185 34.9439 40.8594 35.7493 40.5412C36.5646 40.223 37.196 39.7805 37.6435 39.2138C38.0909 38.647 38.3146 37.9957 38.3146 37.2599C38.3146 36.5739 38.1108 35.9972 37.7031 35.5298C37.3054 35.0625 36.7188 34.6648 35.9432 34.3366C35.1776 34.0085 34.2379 33.7102 33.1243 33.4418L29.7983 32.6065C27.223 31.9801 25.1896 31.0007 23.6982 29.6683C22.2067 28.3359 21.4659 26.5412 21.4759 24.2841C21.4659 22.4347 21.9581 20.8189 22.9524 19.4368C23.9567 18.0547 25.3338 16.9759 27.0838 16.2003C28.8338 15.4247 30.8224 15.0369 33.0497 15.0369C35.3168 15.0369 37.2955 15.4247 38.9858 16.2003C40.6861 16.9759 42.0085 18.0547 42.9531 19.4368C43.8977 20.8189 44.3849 22.4197 44.4148 24.2393H38.2251Z" fill="#3990FC"/>
</g>
<defs>
<filter id="filter0_d_15_2" x="18.6704" y="15.0369" width="28.162" height="35.3956" filterUnits="userSpaceOnUse" color-interpolation-filters="sRGB">
<feFlood flood-opacity="0" result="BackgroundImageFix"/>
<feColorMatrix in="SourceAlpha" type="matrix" values="0 0 0 0 0 0 0 0 0 0 0 0 0 0 0 0 0 0 127 0" result="hardAlpha"/>
<feOffset dy="2"/>
<feGaussianBlur stdDeviation="1"/>
<feComposite in2="hardAlpha" operator="out"/>
<feColorMatrix type="matrix" values="0 0 0 0 0 0 0 0 0 0 0 0 0 0 0 0 0 0 0.25 0"/>
<feBlend mode="normal" in2="BackgroundImageFix" result="effect1_dropShadow_15_2"/>
<feBlend mode="normal" in="SourceGraphic" in2="effect1_dropShadow_15_2" result="shape"/>
</filter>
</defs>
</svg>
